<svg width="28" height="21" viewBox="0 0 28 21" fill="none" xmlns="http://www.w3.org/2000/svg">
<path d="M10.4368 1.37222C10.517 1.31402 10.6821 1.34584 10.7879 1.30626C11.2358 1.14362 11.4257 1.15008 11.8426 1.06435C12.4442 0.884382 14.3217 0.604902 14.3047 1.31959C14.3047 1.3196 14.3047 1.31961 14.3047 1.31962C14.3047 1.32625 14.3045 1.33296 14.3042 1.33974C14.2972 1.46819 14.1542 1.61008 14.1375 1.75643C14.1207 1.90285 14.1521 2.84112 13.9873 2.90104C13.7499 2.97409 13.1315 2.81521 12.9967 2.85879C12.9078 2.88363 12.8157 2.99085 12.7079 3.03302C12.3621 3.17088 12.1499 3.17604 11.9286 3.51056C11.7627 3.44459 11.5915 3.38495 11.4152 3.33225C11.2784 3.45729 10.9636 3.44211 10.8708 3.50657C10.7955 3.55818 10.7997 3.66821 10.7231 3.72059C10.6379 3.77966 10.4446 3.77913 10.2963 3.90403C10.0545 4.11033 10.1709 4.34521 10.0526 4.48401C9.93167 4.62745 9.62048 4.72653 9.51684 4.9637C9.51597 5.00465 9.51551 5.04544 9.51544 5.08612C9.57582 5.11355 9.63587 5.14148 9.69557 5.16991C9.63729 5.27368 9.50881 5.22361 9.43495 5.30361C9.34849 5.39812 9.40122 5.52623 9.34802 5.59088C9.30445 5.64383 9.16913 5.65791 9.1195 5.73481C9.04754 5.84643 9.17966 5.9059 9.16093 5.97764C9.1483 6.00477 8.93993 6.47372 8.93163 6.5002C8.90129 6.55566 8.86533 6.58854 8.82657 6.61119L8.45826 7.21519L7.87354 7.28703C7.77421 7.2476 7.71055 7.15697 7.58702 7.17081C7.09787 7.2275 6.67373 7.54576 6.31555 7.78958C6.15339 7.89874 5.97389 7.98634 5.79377 8.0636C5.80715 7.46928 4.98093 7.54198 5.63691 8.0392C5.39059 8.07103 5.38787 8.33366 5.20935 8.43384C5.09319 8.50028 4.95093 8.4801 4.81196 8.61582C4.55914 8.86314 4.572 9.33159 4.07581 9.07322C3.89991 9.45551 3.54557 9.67653 3.9064 10.0343C3.88541 10.1323 3.51055 10.2402 3.42763 10.3386C3.33445 10.4156 2.94682 11.2144 2.92904 11.3651C2.89252 11.5054 2.84846 11.7576 2.88024 11.8835C2.91853 12.0496 3.41348 12.1563 2.82055 12.4151C2.82136 12.4207 2.82217 12.4262 2.82296 12.4317C2.87082 12.7385 2.861 12.8475 2.82853 13.1468C2.8232 13.2018 2.73737 13.2201 2.74185 13.2519C2.75126 13.3171 2.83304 13.418 2.86357 13.5297C2.91372 13.7132 2.76471 13.8652 3.03208 13.7752C3.10819 13.8835 3.18765 13.9878 3.26998 14.0877C3.23144 14.1448 3.19378 14.203 3.15702 14.2622C3.23501 14.3051 3.31345 14.3456 3.39222 14.3838C2.98116 14.4619 3.38977 14.8061 3.54241 14.5689C3.55912 14.8139 3.5943 15.0632 3.64859 15.3139C3.23038 15.5303 3.90605 15.8003 4.07854 15.599C4.09412 15.6208 4.10985 15.6425 4.12575 15.6642C4.1718 15.9278 4.39003 16.0315 4.53366 16.2958C4.68361 16.5612 4.63697 16.5726 4.56236 16.794C4.62475 16.8336 4.68773 16.872 4.75126 16.9092C5.40341 16.6803 4.73772 17.4673 5.54837 17.4505C5.53713 17.8778 6.11982 17.9631 6.4762 17.9758C6.51819 17.9782 6.54446 17.912 6.60116 17.9098C6.73686 17.9069 7.02142 18.0919 7.07557 17.8666C7.1622 17.9615 7.25249 18.0544 7.34748 18.1454C7.44762 18.1261 7.54552 18.1043 7.64269 18.0804C7.65575 18.0098 7.66881 17.9392 7.6819 17.8686C7.81168 18.1442 8.11482 18.0903 8.24803 18.1597C8.27509 18.174 8.27223 18.2736 8.35995 18.3073C8.43142 18.3353 8.55034 18.3343 8.65826 18.3411L9.32165 18.3883L9.29487 18.9951C9.29482 18.9967 9.29476 18.9984 9.2947 19L8.64062 18.3459C8.68898 18.3477 8.73513 18.3517 8.77483 18.3606C8.82842 18.2509 8.88201 18.1412 8.9356 18.0315C9.18209 17.972 9.26874 18.2615 9.41348 18.284C9.43954 18.2879 9.91502 18.2671 9.94063 18.261C10.1504 18.212 10.0909 17.9653 10.6975 18.0182C10.8055 18.0277 10.8929 18.1131 10.9905 18.1165C11.163 18.1227 11.6827 17.9291 11.7236 17.7503C11.9327 17.9741 12.4924 17.8826 12.6573 17.9473C12.707 17.9672 12.7183 18.1098 12.8712 18.1401C12.9952 18.1649 13.3145 18.0507 13.4717 18.0698C13.6387 18.0906 13.6983 18.2104 13.773 18.2188C13.8437 18.2267 13.9088 18.13 14.0051 18.1306C14.3057 18.134 14.5779 18.2896 14.8154 18.2925C15.159 18.297 15.4625 18.0107 15.7499 17.8836C15.8213 17.9021 15.8914 17.9636 15.9662 17.9641C16.8916 17.9731 17.9354 18.0259 18.8636 18.0872C19.2944 18.1153 20.3659 18.5039 20.0799 17.8556C20.2297 17.742 21.3184 18.0034 21.5255 18.0074C21.5274 18.0074 21.5293 18.0074 21.5312 18.0074L20.5387 19C20.5387 18.9984 20.5387 18.9967 20.5387 18.9951L20.583 17.9923L21.4991 18.0031C21.6697 17.9972 21.7928 17.8735 21.9205 17.8566C22.3111 17.8002 22.6191 17.8206 23.0388 17.5574C23.147 17.4879 23.2107 17.3092 23.2746 17.2809C23.3519 17.2473 23.4956 17.3248 23.6004 17.2771C23.8535 17.1678 24.2416 16.8383 24.4443 16.6785C24.4824 16.6502 24.5737 16.7254 24.6499 16.7037C24.9499 16.6192 25.1458 16.3601 24.8212 16.1663C25.2004 16.0423 25.2189 15.6592 25.341 15.3911C25.5573 14.9571 25.815 14.192 25.7536 13.5908C25.7392 13.4051 25.7025 13.243 25.6499 13.1196C25.4993 12.7933 25.3544 12.8525 25.3456 12.3496C25.3399 12.2371 25.3404 12.1196 25.3189 11.9804C25.275 11.6637 25.3556 11.2115 24.9033 11.2305C24.7594 10.88 24.5115 10.7272 24.505 10.2997C24.429 10.3352 24.3542 10.3723 24.2804 10.4106C24.244 10.383 24.207 10.3559 24.1697 10.3294C24.2031 10.263 24.2358 10.1962 24.268 10.1291C23.9997 9.89758 23.4764 9.94462 23.2335 9.8369C22.9324 9.68697 22.2487 9.40966 21.6916 9.30921L20.8009 9.20471L20.6807 8.41511C20.6649 8.19889 20.6446 8.01015 20.6348 7.87846C20.6126 7.61462 20.4589 7.65553 20.7139 7.40827C20.6732 7.35962 20.632 7.31185 20.5903 7.26495C20.5116 7.25566 20.4328 7.24722 20.3543 7.24011C20.2331 6.9393 20.158 6.54025 19.9942 6.26716C19.7021 5.75791 19.0179 5.22223 18.6797 4.75687C18.5965 4.63717 18.5509 4.40827 18.4357 4.3197C18.2677 4.192 18.0851 4.35457 17.8725 4.21499C17.518 3.96939 16.8864 3.34567 16.4554 3.2338C16.3312 3.19819 16.2478 3.26642 16.1617 3.25067C15.801 3.18779 15.5043 3.11909 15.1453 3.21021C14.8078 2.93734 14.8546 2.64966 14.7487 2.34018C14.6707 2.10633 14.3648 1.57319 14.3105 1.37618C14.2756 1.23657 14.4064 1.05769 14.3585 0.903933C14.9555 0.790689 15.2136 0.955749 15.6442 1.23874C16.5038 1.36789 17.3447 1.63343 18.1249 2.02171C18.1574 2.13235 18.1873 2.24291 18.2148 2.35334C18.2147 2.3535 18.2146 2.35366 18.2145 2.35382C18.4496 2.59393 18.6745 2.48308 18.853 2.53936C20.6433 2.97548 22.4877 6.12303 22.6189 8.03184L21.8351 7.33863C21.8795 7.34332 21.923 7.34824 21.9656 7.35334C22.3809 7.36207 23.7543 7.61482 23.9573 7.88849C24.0121 7.95046 23.9785 8.07682 24.0462 8.11364C24.7051 8.32955 25.3411 8.65788 25.916 9.09301C26.8413 10.2272 27.6939 11.5392 27.8574 13.0569C27.8767 13.2344 27.8881 13.4118 27.8919 13.5908C28.0353 17.0305 24.901 20.0133 21.5649 20.0357L22.5723 18.9951C22.5723 18.9967 22.5723 18.9984 22.5723 19L22.6162 19.9932L21.5312 20.0411C21.0805 20.0413 20.6302 20.0395 20.1803 20.0354C19.5209 20.0293 18.684 20.1261 18.0385 20.0636C17.7691 20.0378 17.6568 19.8302 17.3029 19.9849C17.2991 19.929 17.2954 19.8731 17.2917 19.8172C16.9828 19.8847 16.7854 20.0119 16.4391 20.0248C16.1475 20.0355 15.376 20.0438 15.1183 20.0224C14.9846 20.0118 15.0344 19.9073 14.9098 19.9078C14.6965 19.9095 14.2406 20.0539 13.9463 20.0539C13.6796 20.0539 13.23 19.9336 13.025 19.951C12.2866 20.0129 11.4823 20.1913 10.6954 20.1435C10.4781 20.1299 10.1985 19.9945 10.1304 19.9983C9.99747 20.0061 9.95786 20.1377 9.86855 20.1546C9.52912 20.2186 9.04777 20.1472 8.64062 20.1045L7.58688 20.1511L7.53608 19C7.53625 18.9984 7.53642 18.9967 7.53659 18.9951L8.61087 20.0988C8.45446 20.0804 8.31016 20.0612 8.18344 20.0496C6.5253 19.9114 4.78265 19.255 3.53467 18.1246C2.71416 17.4543 1.67051 15.9713 1.46295 14.9984C1.41105 14.7937 1.56619 14.7992 1.5119 14.6354C1.45376 14.4542 1.3332 14.3799 1.30193 14.2936C1.1467 13.8858 0.954655 13.09 0.963994 12.4316C0.964077 12.142 0.993988 11.8839 1.0424 11.7055C1.07276 11.5934 1.19516 11.5264 1.2036 11.4606C1.20811 11.4276 1.14222 11.34 1.15211 11.2324C1.24965 10.2833 1.53855 9.61891 2.00947 8.82426C2.89826 7.3016 4.48932 5.80784 6.30135 5.31183C6.69335 5.20018 7.01281 5.35946 7.064 5.34451C7.1807 5.31362 7.2236 5.14828 7.46504 5.06784C7.47631 5.06415 7.48766 5.06054 7.4991 5.05699L6.8459 5.5202C7.13878 4.73254 7.9442 3.95479 8.45943 3.38209C8.71216 3.08794 9.01421 2.59669 9.31962 2.33706C9.55689 2.12044 10.242 1.81491 10.3322 1.68361C10.3856 1.59998 10.3501 1.43611 10.4368 1.37222ZM4.5758 8.67353C4.41536 8.46118 4.27632 8.93358 4.49125 8.90431C4.53765 8.89836 4.61576 8.72824 4.5758 8.67353ZM17.2046 18.4192C17.1999 18.3449 17.1952 18.2707 17.1906 18.1965C17.1237 18.2274 17.0568 18.2583 16.9899 18.2892C17.0275 18.3338 17.0651 18.3784 17.1027 18.423C17.1366 18.4217 17.1706 18.4204 17.2046 18.4192Z" fill="#A3BFD9"/>
</svg>
