<svg width="60" height="63" viewBox="0 0 60 63" fill="none" xmlns="http://www.w3.org/2000/svg">
<mask id="path-1-inside-1_5_1399" fill="white">
<path d="M10.3291 47.2832C11.0238 46.9359 11.8597 47.1781 12.2666 47.8203L12.3418 47.9541L18.3418 59.9541L18.4033 60.0947C18.6729 60.8056 18.3656 61.6195 17.6709 61.9668C16.9762 62.3141 16.1403 62.0719 15.7334 61.4297L15.6582 61.2959L9.6582 49.2959L9.59668 49.1553C9.32707 48.4444 9.63442 47.6305 10.3291 47.2832ZM29.3291 47.2832C30.0238 46.9359 30.8597 47.1781 31.2666 47.8203L31.3418 47.9541L37.3418 59.9541L37.4033 60.0947C37.6729 60.8056 37.3656 61.6195 36.6709 61.9668C35.9762 62.3141 35.1403 62.0719 34.7334 61.4297L34.6582 61.2959L28.6582 49.2959L28.5967 49.1553C28.3271 48.4444 28.6344 47.6305 29.3291 47.2832ZM48.3291 47.2832C49.0238 46.9359 49.8597 47.1781 50.2666 47.8203L50.3418 47.9541L56.3418 59.9541L56.4033 60.0947C56.6729 60.8056 56.3656 61.6195 55.6709 61.9668C54.9762 62.3141 54.1403 62.0719 53.7334 61.4297L53.6582 61.2959L47.6582 49.2959L47.5967 49.1553C47.3271 48.4444 47.6344 47.6305 48.3291 47.2832ZM29.5312 0C38.3886 0 45.7736 6.46083 47.4531 15.0381C54.4716 15.5542 60 21.2164 60 28.125C60 35.2223 54.1656 41.0027 46.875 41.2412V41.25H15.9375V41.2432C7.09335 41.0021 0 33.9622 0 25.3125C0 17.4523 5.8575 10.921 13.5635 9.61328C16.69 3.87773 22.6691 0 29.5312 0Z"/>
</mask>
<path d="M10.3291 47.2832L8.98746 44.5999L10.3291 47.2832ZM12.2666 47.8203L14.8818 46.3504L14.8431 46.2815L14.8007 46.2146L12.2666 47.8203ZM12.3418 47.9541L15.0251 46.6125L14.9926 46.5475L14.957 46.4842L12.3418 47.9541ZM18.3418 59.9541L21.0903 58.7516L21.0595 58.6812L21.0251 58.6125L18.3418 59.9541ZM18.4033 60.0947L21.2084 59.0309L21.1818 58.9609L21.1518 58.8923L18.4033 60.0947ZM17.6709 61.9668L19.0125 64.6501L19.0125 64.6501L17.6709 61.9668ZM15.7334 61.4297L13.1182 62.8996L13.1569 62.9685L13.1993 63.0354L15.7334 61.4297ZM15.6582 61.2959L12.9749 62.6375L13.0074 62.7025L13.043 62.7658L15.6582 61.2959ZM9.6582 49.2959L6.90973 50.4984L6.94054 50.5688L6.97492 50.6375L9.6582 49.2959ZM9.59668 49.1553L6.79163 50.2191L6.81819 50.2891L6.84821 50.3577L9.59668 49.1553ZM29.3291 47.2832L27.9875 44.5999L29.3291 47.2832ZM31.2666 47.8203L33.8818 46.3504L33.8431 46.2815L33.8007 46.2146L31.2666 47.8203ZM31.3418 47.9541L34.0251 46.6125L33.9926 46.5475L33.957 46.4842L31.3418 47.9541ZM37.3418 59.9541L40.0903 58.7516L40.0595 58.6812L40.0251 58.6125L37.3418 59.9541ZM37.4033 60.0947L40.2084 59.0309L40.1818 58.9609L40.1518 58.8923L37.4033 60.0947ZM36.6709 61.9668L38.0125 64.6501L38.0125 64.6501L36.6709 61.9668ZM34.7334 61.4297L32.1182 62.8996L32.1569 62.9685L32.1993 63.0354L34.7334 61.4297ZM34.6582 61.2959L31.9749 62.6375L32.0074 62.7025L32.043 62.7658L34.6582 61.2959ZM28.6582 49.2959L25.9097 50.4984L25.9405 50.5688L25.9749 50.6375L28.6582 49.2959ZM28.5967 49.1553L25.7916 50.2191L25.8182 50.2891L25.8482 50.3577L28.5967 49.1553ZM48.3291 47.2832L46.9875 44.5999L48.3291 47.2832ZM50.2666 47.8203L52.8818 46.3504L52.8431 46.2815L52.8007 46.2146L50.2666 47.8203ZM50.3418 47.9541L53.0251 46.6125L52.9926 46.5475L52.957 46.4842L50.3418 47.9541ZM56.3418 59.9541L59.0903 58.7516L59.0595 58.6812L59.0251 58.6125L56.3418 59.9541ZM56.4033 60.0947L59.2084 59.0309L59.1818 58.9609L59.1518 58.8923L56.4033 60.0947ZM55.6709 61.9668L57.0125 64.6501L57.0125 64.6501L55.6709 61.9668ZM53.7334 61.4297L51.1182 62.8996L51.1569 62.9685L51.1993 63.0354L53.7334 61.4297ZM53.6582 61.2959L50.9749 62.6375L51.0074 62.7025L51.043 62.7658L53.6582 61.2959ZM47.6582 49.2959L44.9097 50.4984L44.9405 50.5688L44.9749 50.6375L47.6582 49.2959ZM47.5967 49.1553L44.7916 50.2191L44.8182 50.2891L44.8482 50.3577L47.5967 49.1553ZM47.4531 15.0381L44.509 15.6146L44.9491 17.8621L47.2331 18.03L47.4531 15.0381ZM46.875 41.2412L46.7769 38.2428L43.875 38.3378V41.2412H46.875ZM46.875 41.25V44.25H49.875V41.25H46.875ZM15.9375 41.25H12.9375V44.25H15.9375V41.25ZM15.9375 41.2432H18.9375V38.3238L16.0192 38.2443L15.9375 41.2432ZM13.5635 9.61328L14.0654 12.571L15.5007 12.3274L16.1975 11.0491L13.5635 9.61328ZM10.3291 47.2832L11.6707 49.9665C10.9752 50.3143 10.1416 50.0717 9.73247 49.426L12.2666 47.8203L14.8007 46.2146C13.5777 44.2844 11.0724 43.5574 8.98746 44.5999L10.3291 47.2832ZM12.2666 47.8203L9.65137 49.2902L9.72656 49.424L12.3418 47.9541L14.957 46.4842L14.8818 46.3504L12.2666 47.8203ZM12.3418 47.9541L9.65852 49.2957L15.6585 61.2957L18.3418 59.9541L21.0251 58.6125L15.0251 46.6125L12.3418 47.9541ZM18.3418 59.9541L15.5933 61.1566L15.6548 61.2972L18.4033 60.0947L21.1518 58.8923L21.0903 58.7516L18.3418 59.9541ZM18.4033 60.0947L15.5983 61.1585C15.3276 60.445 15.6326 59.6318 16.3293 59.2835L17.6709 61.9668L19.0125 64.6501C21.0985 63.6071 22.0182 61.1663 21.2084 59.0309L18.4033 60.0947ZM17.6709 61.9668L16.3293 59.2835C17.0248 58.9357 17.8584 59.1783 18.2675 59.824L15.7334 61.4297L13.1993 63.0354C14.4223 64.9656 16.9276 65.6926 19.0125 64.6501L17.6709 61.9668ZM15.7334 61.4297L18.3486 59.9598L18.2734 59.826L15.6582 61.2959L13.043 62.7658L13.1182 62.8996L15.7334 61.4297ZM15.6582 61.2959L18.3415 59.9543L12.3415 47.9543L9.6582 49.2959L6.97492 50.6375L12.9749 62.6375L15.6582 61.2959ZM9.6582 49.2959L12.4067 48.0934L12.3452 47.9528L9.59668 49.1553L6.84821 50.3577L6.90973 50.4984L9.6582 49.2959ZM9.59668 49.1553L12.4017 48.0915C12.6724 48.805 12.3674 49.6182 11.6707 49.9665L10.3291 47.2832L8.98746 44.5999C6.90146 45.6429 5.98178 48.0837 6.79163 50.2191L9.59668 49.1553ZM29.3291 47.2832L30.6707 49.9665C29.9752 50.3143 29.1416 50.0717 28.7325 49.426L31.2666 47.8203L33.8007 46.2146C32.5777 44.2844 30.0724 43.5574 27.9875 44.5999L29.3291 47.2832ZM31.2666 47.8203L28.6514 49.2902L28.7266 49.424L31.3418 47.9541L33.957 46.4842L33.8818 46.3504L31.2666 47.8203ZM31.3418 47.9541L28.6585 49.2957L34.6585 61.2957L37.3418 59.9541L40.0251 58.6125L34.0251 46.6125L31.3418 47.9541ZM37.3418 59.9541L34.5933 61.1566L34.6548 61.2972L37.4033 60.0947L40.1518 58.8923L40.0903 58.7516L37.3418 59.9541ZM37.4033 60.0947L34.5983 61.1585C34.3276 60.445 34.6326 59.6318 35.3293 59.2835L36.6709 61.9668L38.0125 64.6501C40.0985 63.6071 41.0182 61.1663 40.2084 59.0309L37.4033 60.0947ZM36.6709 61.9668L35.3293 59.2835C36.0248 58.9357 36.8584 59.1783 37.2675 59.824L34.7334 61.4297L32.1993 63.0354C33.4223 64.9656 35.9276 65.6926 38.0125 64.6501L36.6709 61.9668ZM34.7334 61.4297L37.3486 59.9598L37.2734 59.826L34.6582 61.2959L32.043 62.7658L32.1182 62.8996L34.7334 61.4297ZM34.6582 61.2959L37.3415 59.9543L31.3415 47.9543L28.6582 49.2959L25.9749 50.6375L31.9749 62.6375L34.6582 61.2959ZM28.6582 49.2959L31.4067 48.0934L31.3452 47.9528L28.5967 49.1553L25.8482 50.3577L25.9097 50.4984L28.6582 49.2959ZM28.5967 49.1553L31.4017 48.0915C31.6724 48.805 31.3674 49.6182 30.6707 49.9665L29.3291 47.2832L27.9875 44.5999C25.9015 45.6429 24.9818 48.0837 25.7916 50.2191L28.5967 49.1553ZM48.3291 47.2832L49.6707 49.9665C48.9752 50.3143 48.1416 50.0717 47.7325 49.426L50.2666 47.8203L52.8007 46.2146C51.5777 44.2844 49.0724 43.5574 46.9875 44.5999L48.3291 47.2832ZM50.2666 47.8203L47.6514 49.2902L47.7266 49.424L50.3418 47.9541L52.957 46.4842L52.8818 46.3504L50.2666 47.8203ZM50.3418 47.9541L47.6585 49.2957L53.6585 61.2957L56.3418 59.9541L59.0251 58.6125L53.0251 46.6125L50.3418 47.9541ZM56.3418 59.9541L53.5933 61.1566L53.6548 61.2972L56.4033 60.0947L59.1518 58.8923L59.0903 58.7516L56.3418 59.9541ZM56.4033 60.0947L53.5983 61.1585C53.3276 60.445 53.6326 59.6318 54.3293 59.2835L55.6709 61.9668L57.0125 64.6501C59.0985 63.6071 60.0182 61.1663 59.2084 59.0309L56.4033 60.0947ZM55.6709 61.9668L54.3293 59.2835C55.0248 58.9357 55.8584 59.1783 56.2675 59.824L53.7334 61.4297L51.1993 63.0354C52.4223 64.9656 54.9276 65.6926 57.0125 64.6501L55.6709 61.9668ZM53.7334 61.4297L56.3486 59.9598L56.2734 59.826L53.6582 61.2959L51.043 62.7658L51.1182 62.8996L53.7334 61.4297ZM53.6582 61.2959L56.3415 59.9543L50.3415 47.9543L47.6582 49.2959L44.9749 50.6375L50.9749 62.6375L53.6582 61.2959ZM47.6582 49.2959L50.4067 48.0934L50.3452 47.9528L47.5967 49.1553L44.8482 50.3577L44.9097 50.4984L47.6582 49.2959ZM47.5967 49.1553L50.4017 48.0915C50.6724 48.805 50.3674 49.6182 49.6707 49.9665L48.3291 47.2832L46.9875 44.5999C44.9015 45.6429 43.9818 48.0837 44.7916 50.2191L47.5967 49.1553ZM29.5312 0V3C36.8744 3 43.0896 8.36559 44.509 15.6146L47.4531 15.0381L50.3972 14.4616C48.4576 4.55606 39.9028 -3 29.5312 -3V0ZM47.4531 15.0381L47.2331 18.03C52.7855 18.4383 57 22.8873 57 28.125H60H63C63 19.5454 56.1577 12.6701 47.6731 12.0462L47.4531 15.0381ZM60 28.125H57C57 33.5043 52.5508 38.0539 46.7769 38.2428L46.875 41.2412L46.9731 44.2396C55.7803 43.9514 63 36.9402 63 28.125H60ZM46.875 41.2412H43.875V41.25H46.875H49.875V41.2412H46.875ZM46.875 41.25V38.25H15.9375V41.25V44.25H46.875V41.25ZM15.9375 41.25H18.9375V41.2432H15.9375H12.9375V41.25H15.9375ZM15.9375 41.2432L16.0192 38.2443C8.71554 38.0452 3 32.2545 3 25.3125H0H-3C-3 35.67 5.47116 43.959 15.8558 44.2421L15.9375 41.2432ZM0 25.3125H3C3 19.002 7.71493 13.6487 14.0654 12.571L13.5635 9.61328L13.0616 6.65557C4.00006 8.19329 -3 15.9026 -3 25.3125H0ZM13.5635 9.61328L16.1975 11.0491C18.833 6.21442 23.8375 3 29.5312 3V0V-3C21.5007 -3 14.547 1.54103 10.9294 8.17742L13.5635 9.61328Z" fill="#A3BFD9" mask="url(#path-1-inside-1_5_1399)"/>
</svg>
