<svg width="14" height="16" viewBox="0 0 14 16" fill="none" xmlns="http://www.w3.org/2000/svg">
<path d="M1 3.88568H2.33333M2.33333 3.88568H13M2.33333 3.88568V13.4857C2.33333 13.8494 2.47381 14.1982 2.72386 14.4554C2.97391 14.7126 3.31304 14.8571 3.66667 14.8571H10.3333C10.687 14.8571 11.0261 14.7126 11.2761 14.4554C11.5262 14.1982 11.6667 13.8494 11.6667 13.4857V3.88568M4.33333 3.88568V2.51425C4.33333 2.15053 4.47381 1.8017 4.72386 1.5445C4.97391 1.28731 5.31304 1.14282 5.66667 1.14282H8.33333C8.68696 1.14282 9.02609 1.28731 9.27614 1.5445C9.52619 1.8017 9.66667 2.15053 9.66667 2.51425V3.88568" stroke="#396C9B" stroke-linecap="round" stroke-linejoin="round"/>
</svg>
